<svg xmlns="http://www.w3.org/2000/svg" width="108.108" height="103.852" viewBox="0 0 108.108 103.852">
  <g id="Group_42" data-name="Group 42" transform="translate(-45.146 -671.859)">
    <g id="Group_18" data-name="Group 18" transform="translate(45.146 671.859)">
      <path id="Path_10" data-name="Path 10" d="M157.546,149,114,161.028v47.76c0,19.631,43.546,38.5,43.546,38.5s43.546-18.874,43.546-38.5v-47.76Z" transform="translate(-114 -149)" fill="#3e82f7"/>
      <g id="Group_17" data-name="Group 17" transform="translate(33.212 28.196)">
        <path id="Path_11" data-name="Path 11" d="M366.03,341.364V349.4H349v-8.037c0-5.23,3.756-9.464,8.515-9.464S366.03,336.133,366.03,341.364Z" transform="translate(-347.488 -331.9)" fill="#3e82f7" stroke="#fff" stroke-miterlimit="10" stroke-width="7"/>
        <path id="Path_12" data-name="Path 12" d="M328.755,460.278a.553.553,0,0,1-.55.55H308.55a.553.553,0,0,1-.55-.55V443.55a.553.553,0,0,1,.55-.55h19.656a.553.553,0,0,1,.55.55Z" transform="translate(-308 -425.765)" fill="#fff" stroke="#fff" stroke-miterlimit="10" stroke-width="15"/>
        <path id="Path_13" data-name="Path 13" d="M404.7,493.029l.914,2.732H401.5l.914-2.741.355-1.056a2.047,2.047,0,1,1,1.579.009Z" transform="translate(-393.207 -466.773)" fill="#2f5fb8" stroke="#2f5fb8" stroke-linecap="round" stroke-linejoin="round" stroke-miterlimit="10" stroke-width="7"/>
      </g>
    </g>
    <g id="Group_19" data-name="Group 19" transform="translate(111.249 733.705)">
      <path id="Path_14" data-name="Path 14" d="M628.105,557.7a20.781,20.781,0,0,0-3.486-11.579A21.016,21.016,0,0,0,607.1,536.7a20.78,20.78,0,0,0-11.579,3.487A21.016,21.016,0,0,0,586.1,557.7a20.781,20.781,0,0,0,3.487,11.58h0a21.048,21.048,0,0,0,1.946,2.506c.35.392.728.77,1.106,1.134a20.536,20.536,0,0,0,2.884,2.3h0a20.972,20.972,0,0,0,23.159,0h0a20.97,20.97,0,0,0,2.884-2.3c.378-.364.756-.742,1.106-1.134a21.062,21.062,0,0,0,1.946-2.506h0A20.781,20.781,0,0,0,628.105,557.7Z" transform="translate(-586.1 -536.7)" fill="#39b54a"/>
      <path id="Path_15" data-name="Path 15" d="M678.065,610.342l-2.548-2.548a1,1,0,0,0-1.414,0l-12.35,12.349-4.4-4.4a1,1,0,0,0-1.414,0l-2.548,2.548a1,1,0,0,0,0,1.414l7.645,7.645a1.014,1.014,0,0,0,1.428,0l15.584-15.584A1,1,0,0,0,678.065,610.342Z" transform="translate(-643.719 -597.587)" fill="#e6e6e6"/>
    </g>
  </g>
</svg>
